<svg xmlns="http://www.w3.org/2000/svg" width="410" height="26" xmlns:v="https://vecta.io/nano"><g fill="#dd001c"><path d="M161.1 25.3h0 0 0c-1.4 0-2.5-1.1-2.5-2.6 0-1.4 1.1-2.5 2.5-2.5s2.5 1.1 2.5 2.5c-.1 1.4-1.1 2.6-2.5 2.6h0zm0-5.5h0 0 0c-1.5 0-2.7 1.2-2.7 2.9s1.2 2.9 2.7 2.9 2.7-1.2 2.7-2.9-1.2-2.9-2.7-2.9h0z"/><path d="M161.3 22.4h0 0 0-.8v-1h.7.1 0c.3 0 .5.3.5.5h0 0 0c0 .4-.3.5-.5.5h0zm1.1.8h0 0 0c0-.3-.3-.5-.5-.7.4 0 .7-.4.7-.8 0-.5-.4-.9-.9-1h-.1 0-.4-1.4v3.6h.7V23h.7 0c.4 0 .5.3.5.5h0v.5h0c0 .1 0 .3.1.3h0 .7 0c-.1 0-.1-.3-.1-.4h0v-.7h0zM56.2 10.7h0 0-14.7V2h-7.4v22.3h7.4v-8.9h14.6v8.9h7.4V2h-7.4v8.7h.1zM81 15.4h0 0-5.2L81 6.8h.1l5.1 8.6H81h0zM81 2h0 0-2.7L64.9 24.3h5.6l2.7-4.6H81h7.7l2.6 4.6h9.2L87.2 2H81h0zm49.1 9.8h0 0 0c1.8-2.3 1.5-5.9-1.9-7.8-3.1-1.9-9.2-2.6-13-2.6-6.1 0-10 .4-13.4 1.1h0v22h7.5V5.7h0c2.7-.5 5.5-.5 6.4-.5 3 .3 4.6.7 6 1.6 1.4 1 1.8 3.1 0 4.6-1.4 1.1-4.1 2.1-10.1 1.1h0l-.8 1.4 11.5 10.4h10.1l-10.3-9h0c2.5-.3 6.2-1.2 8-3.5h0 0zm-112.3-2h0 0 0c-4.4-.8-8-1.3-8-2.8s2.9-1.9 7.1-1.5c4 .4 7.7 1.5 11.2 3h0l2.6-4.4h0C27.9 3 22.1 1.6 16.8 1.4 11.1 1.2 1.4 1.8 1 7.7c-.4 5.5 7.2 6.7 12.3 7.8 4.9 1.1 9.4 1.6 9.4 3.3 0 1.2-1.6 2-5.9 1.8-5.1-.4-9.4-1.8-13.8-4h0l-3 4.9h0c4.8 1.9 11.2 3.4 16.8 3.6 6.8.1 14.5-1 14.6-6.8.3-5-4.8-6.7-13.6-8.5h0zm136.4 1.8h0 0 0c-1.2 1-3 1.4-5.6 1.5h0-.6 0c-2.2 0-4.5-.4-6.3-.8h0V5.7h0c2.7-.5 5.5-.5 6.6-.5h0 .4 0c2.7.1 4.4.7 5.6 1.6 1.4 1 1.8 3.3-.1 4.8h0 0 0zm6.5-7.6h0 0 0c-2.7-1.6-7.9-2.3-12.2-2.6h0-1 0c-6 0-10 .4-13.4 1.1h0v22h7.5v-8.1h0c2 .4 4.5.5 6.8.5h0 .8 0c6.1 0 10.7-1.5 12.7-3.7 1.1-1.2 1.8-2.6 1.8-3.8h0v-.7h0c.2-1.9-.9-3.5-3-4.7h0 0z"/></g><path d="M201 11.7c-1.6-.4-3.8-.8-3.8-3 0-1.7 1.3-2.9 2.9-2.9 1.7 0 2.9 1.4 2.9 3h1.6c0-2.5-2-4.4-4.5-4.4s-4.5 1.8-4.5 4.4c0 2.7 1.9 3.5 4.2 4.2 1.8.5 3.7 1.2 3.7 3.4 0 1.9-1.5 3.3-3.3 3.3-2 0-3.3-1.3-3.4-3.3h-1.6c0 2.9 2 4.8 4.9 4.8 2.7 0 4.9-2.1 4.9-4.9 0-2.4-1.7-3.9-4-4.6zm6.7-2.8h1.5v12h-1.5zm0-3.6h1.5v1.8h-1.5zm18.1 3.4c-1.7 0-3 .8-4 2.3-.9-1.5-2.4-2.3-4-2.3-1.4 0-2.6.5-3.3 1.6V8.9H213v12h1.5v-7c0-2.1 1-4 3.3-4s3.3 1.8 3.3 4v7h1.5v-7c0-2.1 1-4 3.3-4s3.3 1.8 3.3 4v7 .1h1.4v-7.1c0-2.9-1.8-5.2-4.8-5.2zm14.9-.3c-1.9 0-3.5 1-4.6 2.5v-2h-1.5v16.3h1.5v-6.3c.9 1.5 2.7 2.3 4.6 2.3 3.5 0 6.3-2.8 6.4-6.5 0-3.6-2.8-6.3-6.4-6.3zm0 11.4c-2.7 0-4.8-2.2-4.8-4.9 0-2.6 2.1-4.9 4.8-4.9s4.8 2 4.9 4.9c0 2.9-2.2 4.9-4.9 4.9zm9.5-15.2h1.5v16.3h-1.5zm9.7 13.9l-3.8-9.6h-1.6l4.6 11.6-2.1 4.6h1.6l6.9-16.2H264zm22.8-6.4c1.1-1 1.8-1.8 1.8-3.3 0-.5-.2-1.1-.3-1.6-.8-1.9-2.9-2.6-4.9-2.6h-4.1v16.2h4.4c1.5 0 2.6 0 4-.8 1.2-.9 1.9-2.4 1.8-3.9 0-1.8-1.1-3.3-2.7-4zm-6-6h2.2c1.1 0 2.5 0 3.3 1 .4.6.7 1.1.6 1.8 0 .9-.6 1.9-1.4 2.3s-1.7.4-2.7.4h-2V6.1zm5.5 12.8c-.9.4-2 .4-3.1.4h-2.2V13h1.9c.9 0 2.1 0 3.1.4 1.1.5 2 1.6 1.9 2.8 0 1.1-.5 2.3-1.6 2.7zm17.9-4c0-3.4-2.7-6.4-6.3-6.4-3.5 0-6.2 2.9-6.2 6.3s2.9 6.3 6.3 6.3c2.6 0 5.1-1.7 5.9-4.2h-1.6c-.5 1.8-2.3 2.9-4.2 2.9-2.3 0-4.5-2.1-4.6-4.4h10.9c0-.1 0-.2-.2-.5zm-10.7-.8c.4-2.3 2.3-4.1 4.6-4.1 2.4 0 4.3 1.6 4.7 4.1h-9.3zm17-9.5h-1.5v4.3h-2.6v1.4h2.6V21h1.5V10.3v-.1h2.9V8.8h-2.9zm8.2 0h-1.5v4.3h-2.5v1.4h2.5V21h1.5V10.3v-.1h3V8.8h-3zm17 10.3c0-3.4-2.7-6.4-6.3-6.4-3.4 0-6.1 2.9-6.1 6.3s2.9 6.3 6.3 6.3c2.6 0 5.1-1.7 5.9-4.2h-1.6c-.5 1.8-2.3 2.9-4.2 2.9-2.3 0-4.5-2.1-4.6-4.4h11c0-.1 0-.2-.4-.5zm-10.5-.8c.2-2.3 2.3-4.1 4.6-4.1 2.4 0 4.2 1.6 4.7 4.1h-9.3zm15.5-3.4V8.9h-1.5v12h1.5v-7.1c0-2.2 1.4-3.4 3.4-3.5V8.7c-1.6.1-2.7.5-3.4 2zm14.9-6.1h-1.6v16.3h8.3v-1.5h-6.7zm9 4.3h1.5v12h-1.5zm0-3.6h1.5v1.8h-1.5zm9.8 13.7l-4.2-10.1h-1.6l5.1 12h1.6l4.9-12h-1.6zm8.4-10.1h1.5v12h-1.5zm0-3.6h1.5v1.8h-1.5zm10.5 3.2c-1.5 0-2.9.7-3.7 1.9V8.8H384v12h1.5v-6.7c0-1.1.3-2.3 1.1-3.1.7-.7 1.6-1.1 2.6-1.1s1.9.4 2.6 1.1c.8.8 1.1 2.2 1.1 3.3v6.5h1.5v-6.6c0-3.2-1.8-5.7-5.2-5.7zm19.3.4v2c-1-1.7-2.7-2.5-4.6-2.5-3.6 0-6.3 2.8-6.3 6.4s2.9 6.3 6.3 6.3c1.9 0 3.8-.9 4.6-2.5v1.1c0 2.7-1.7 4.5-4.4 4.5-2.2 0-3.7-1.1-4.5-3H398c.8 2.8 3.2 4.4 6.1 4.4 1.8 0 3.7-.7 4.8-2.2 1-1.3 1.1-2.8 1.1-4.4V8.9h-1.5zm-4.7 10.9c-2.8 0-4.8-2.3-4.8-4.9s2.1-4.9 4.8-4.9c2.6 0 4.8 2.2 4.8 4.9 0 2.6-2.2 4.9-4.8 4.9zM178.8 0v26h1 .3V0h-1z" fill="#fff"/></svg>