<svg xmlns="http://www.w3.org/2000/svg" width="300" height="19" xmlns:v="https://vecta.io/nano"><g fill-rule="evenodd"><path d="M146.4 15.5h0 0 0c-2.1 0-3.6-1.4-3.6-3.5h0 1.2 0c.1 1.5 1 2.4 2.5 2.4 1.3 0 2.4-1 2.4-2.4 0-1.6-1.4-2.1-2.7-2.5-1.7-.5-3.1-1.1-3.1-3.1 0-1.9 1.5-3.2 3.3-3.2s3.3 1.4 3.3 3.2h0-1.2 0c0-1.2-.9-2.2-2.1-2.2s-2.1.9-2.1 2.1c0 1.6 1.6 1.9 2.8 2.2 1.7.5 2.9 1.6 2.9 3.4 0 2.1-1.6 3.6-3.6 3.6h0zm5.6-9h0 0 1.1v8.8H152V6.5h0zm0-2.6h0 0 1.1v1.3H152V3.9h0zm15.7 11.4h0 0v-5.1h0c0-1.6-.7-2.9-2.4-2.9s-2.4 1.4-2.4 2.9h0v5.1h-1.1v-5.1h0c0-1.6-.7-2.9-2.4-2.9s-2.4 1.4-2.4 2.9h0v5.1h-1.1V6.5h1.1v1h0c.5-.8 1.4-1.2 2.4-1.2 1.2 0 2.3.6 2.9 1.7.7-1.1 1.7-1.7 2.9-1.7 2.2 0 3.5 1.7 3.5 3.8h0v5.2h-1 0zm8.4-8h0 0 0c-2 0-3.5 1.7-3.5 3.6 0 2 1.5 3.6 3.5 3.6s3.6-1.5 3.6-3.6c-.1-2.1-1.6-3.6-3.6-3.6h0zm0 8.2h0 0 0c-1.4 0-2.7-.6-3.4-1.7h0 0v4.6h-1.1V6.5h1.1V8h0 0c.8-1.1 2-1.8 3.4-1.8 2.6 0 4.7 2 4.7 4.6-.1 2.7-2.1 4.7-4.7 4.7h0zm7-12.1h0 0 1.1v11.9h-1.1V3.4zm6.1 15h0 0-1.2l1.5-3.4-3.4-8.5h1.2l2.8 7 3-7h1.1l-5 11.9zm17.1-8.6h0 0 0c-.7-.3-1.6-.3-2.3-.3h0-1.4v4.6h1.6 0c.8 0 1.6 0 2.3-.3.8-.3 1.2-1.2 1.2-2s-.6-1.6-1.4-2h0zm.2-4.6h0 0 0c-.6-.7-1.6-.7-2.4-.7h0-1.6v4h1.5 0c.7 0 1.4 0 2-.3s1-1 1-1.7c0-.5-.2-.9-.5-1.3h0zm1 9.4h0 0 0c-1 .6-1.8.6-2.9.6h0-3.2V3.4h3 0c1.5 0 3 .5 3.6 1.9.1.4.2.8.2 1.2 0 1.1-.5 1.7-1.3 2.4 1.2.5 2 1.6 2 2.9 0 1.1-.5 2.2-1.4 2.8h0zm7.6-7.3h0 0 0c-1.7 0-3.1 1.3-3.4 3h0 6.8 0c-.2-1.8-1.6-3-3.4-3h0zm4.6 4h0 0-8 0c.1 1.7 1.7 3.2 3.4 3.2 1.4 0 2.7-.8 3.1-2.1h0 1.2 0c-.6 1.8-2.4 3.1-4.3 3.1-2.5 0-4.6-2.1-4.6-4.6s2-4.6 4.5-4.6c2.6 0 4.6 2.2 4.6 4.7.1.1.1.2.1.3h0zm4.5-3.8h0 0v7.8h-1.1V7.5h-1.9v-1h1.9V3.4h1.1v3.1h2.1v1h-2.1zm6 0h0 0v7.8h-1.1V7.5h-1.8v-1h1.8V3.4h1.1v3.1h2.2v1h-2.2zm8.1-.2h0 0 0c-1.7 0-3.2 1.3-3.4 3h0 6.8 0c-.3-1.8-1.6-3-3.4-3h0zm4.6 4h0 0-8 0c.1 1.7 1.7 3.2 3.4 3.2 1.4 0 2.7-.8 3.1-2.1h0 1.2 0c-.6 1.8-2.4 3.1-4.3 3.1-2.5 0-4.6-2.1-4.6-4.6s2-4.6 4.5-4.6c2.6 0 4.6 2.2 4.6 4.7.1.1.1.2.1.3h0zm3.4-1.2h0 0v5.2h-1.1V6.5h1.1v1.3h0 0c.5-1.1 1.3-1.4 2.5-1.5h0v1.2h0c-1.5.1-2.5 1-2.5 2.6h0zm9.7 5.2h0 0V3.4h1.2v10.8h4.9v1.1H256zm7.8-8.8h0 0 1.1v8.8h-1.1V6.5h0zm0-2.6h0 0 1.1v1.3h-1.1V3.9h0zm7.8 11.4h0 0-1.2l-3.7-8.8h1.2l3.1 7.4 3.1-7.4h1.2l-3.7 8.8zm5.5-8.8h0 0 1.1v8.8h-1.1V6.5h0zm0-2.6h0 0 1.1v1.3h-1.1V3.9h0zm10.4 11.4h0 0v-4.8h0c0-.8-.2-1.8-.8-2.4-.5-.5-1.2-.8-1.9-.8s-1.4.3-1.9.8c-.6.6-.8 1.5-.8 2.3h0v4.9H281V6.5h1.1v1.2h0 0c.6-.9 1.6-1.4 2.7-1.4 2.5 0 3.8 1.8 3.8 4.2h0v4.8h-1.1 0zm8-8h0 0 0c-2 0-3.5 1.7-3.5 3.6s1.5 3.6 3.5 3.6c1.9 0 3.5-1.7 3.5-3.6 0-2-1.6-3.6-3.5-3.6h0zm3.7 9.8h0 0 0c-.8 1.1-2.2 1.6-3.5 1.6-2.1 0-3.9-1.2-4.5-3.2h0 1.2 0c.6 1.4 1.7 2.2 3.3 2.2 2 0 3.2-1.3 3.2-3.3h0v-.8h0 0c-.6 1.2-2 1.8-3.4 1.8-2.5 0-4.6-2-4.6-4.6s2-4.7 4.6-4.7c1.4 0 2.6.6 3.4 1.8h0 0V6.5h1.1v7.4h0c0 1.2-.1 2.3-.8 3.2h0z" fill="#111112"/><g fill="#dc1731"><path d="M117.9 18.5h0 0 0c-1 0-1.8-.8-1.8-1.9a1.79 1.79 0 1 1 3.6 0c-.1 1-.8 1.9-1.8 1.9h0zm0-4h0 0 0c-1.1 0-2 .9-2 2.1s.9 2.1 2 2.1 2-.9 2-2.1-.9-2.1-2-2.1h0z"/><path d="M118 16.4h0 0 0-.6v-.7h.5.1 0c.2 0 .4.2.4.4h0 0 0c0 .2-.2.3-.4.3h0zm.8.6h0 0 0c0-.2-.2-.4-.4-.5.3 0 .5-.3.5-.6a.68.68 0 0 0-.7-.7h0-.3-1v2.6h.5v-1h.5 0c.3 0 .4.2.4.4h0v.4h0c0 .1 0 .2.1.2h0 .5 0c-.1 0-.1-.2-.1-.3h0V17h0zM41.1 7.8h0 0-10.7V1.5H25v16.3h5.4v-6.5h10.7v6.5h5.4V1.5h-5.4v6.3zm18.2 3.5h0 0-3.8L59.3 5h.1l3.7 6.3h-3.8 0zm0-9.8h0 0-2l-9.8 16.3h4.1l2-3.4h5.7 5.6l1.9 3.4h6.7L63.8 1.5h-4.5 0zm35.9 7.1h0 0 0c1.3-1.7 1.1-4.3-1.4-5.7C91.5 1.5 87.1 1 84.3 1c-4.5 0-7.3.3-9.8.8h0v16.1H80V4.2h0c2-.4 4-.4 4.7-.4 2.2.2 3.4.5 4.4 1.2s1.3 2.3 0 3.4c-1 .8-3 1.5-7.4.8h0l-.6 1 8.4 7.6h7.4l-7.5-6.6h0c1.8-.2 4.5-.9 5.8-2.6h0zM13 7.2h0 0 0c-3.2-.6-5.8-1-5.8-2.1S9.3 3.7 12.4 4c2.9.3 5.6 1.1 8.2 2.2h0L22.5 3h0c-2.1-.8-6.3-1.8-10.2-2C8.1.9 1 1.3.7 5.6c-.3 4 5.3 4.9 9 5.7 3.6.8 6.9 1.2 6.9 2.4 0 .9-1.2 1.5-4.3 1.3-3.7-.3-6.9-1.3-10.1-2.9h0L0 15.7h0c3.5 1.4 8.2 2.5 12.3 2.6 5 .1 10.6-.7 10.7-5 .2-3.6-3.5-4.8-10-6.1h0zm99.8 1.3h0 0 0c-.9.7-2.2 1-4.1 1.1h0-.4 0c-1.6 0-3.3-.3-4.6-.6h0V4.2h0c2-.4 4-.4 4.8-.4h0 .3 0c2 .1 3.2.5 4.1 1.2 1 .7 1.3 2.4-.1 3.5h0zm4.8-5.6h0 0 0c-2-1.2-5.8-1.7-8.9-1.9h0-.7 0c-4.4 0-7.3.3-9.8.8h0v16.1h5.5V12h0c1.5.3 3.3.4 5 .4h0 .6 0c4.5 0 7.8-1.1 9.3-2.7.8-.9 1.3-1.9 1.3-2.8h0v-.5h0c0-1.4-.8-2.6-2.3-3.5h0z"/></g></g><path d="M131.8 0h-.7-.2v19h.7.2z" fill="#111112"/><defs ><path  d="M61.8-71.7v.2c-.1.1-.1.1-.2.1-.1.1-.1.3-.1.4-.2.1 0 .2 0 .3v.2c0 .1 0 .3.1.4.1.2.3.4.4.5.2.1.4.6.6.6s.4-.1.5-.1c.2 0 .4 0 .6-.1s.1-.3.3-.5c.1-.1.3 0 .4-.1.2-.1.3-.3.4-.5v-.2c0-.1.1-.2.1-.3s-.1-.1-.1-.2v-.3c0-.2 0-.4-.1-.5-.4-.7-1.2-.9-2-.8-.2 0-.3.1-.4.2-.2.1-.1.2-.3.2-.1 0-.2.1-.2.2v.3c0 .1 0 .1 0 0"/><path  d="M69.4-64v.2c-.1.1-.1.1-.2.1-.1.1-.1.3-.1.4-.2.1 0 .2 0 .3v.2c0 .1 0 .3.1.4.1.2.3.4.4.5.2.1.4.6.6.6s.4-.1.5-.1c.2 0 .4 0 .6-.1s.1-.3.3-.5c.1-.1.3 0 .4-.1.2-.1.3-.3.4-.5v-.2c0-.1.1-.2.1-.3s-.1-.1-.1-.2v-.3c0-.2 0-.4-.1-.5-.4-.7-1.2-.9-2-.8-.2 0-.3.1-.4.2-.2.1-.1.2-.3.2-.1 0-.2.1-.2.2v.3"/><path  d="M8.2-56.3v.2c-.1 0-.2 0-.2.1-.1.1-.1.3-.1.4-.2.1 0 .2 0 .3v.2c0 .1 0 .3.1.4.1.2.3.4.4.5.2.1.4.6.6.6s.4-.1.5-.1c.2 0 .4 0 .6-.1s.1-.3.3-.5c.1-.1.3 0 .4-.1.2-.1.3-.3.4-.5v-.2c0-.1.1-.2.1-.3s-.1-.1-.1-.2v-.3c0-.2 0-.4-.1-.5-.4-.7-1.2-.9-2-.8-.2 0-.3.1-.4.2-.2.1-.1.2-.3.2-.1 0-.2.1-.2.2v.3c-.1 0-.1 0 0 0"/><path  d="M69.4-18.1v.2c-.1.1-.1.1-.2.1-.1.1-.1.3-.1.4-.2.1 0 .2 0 .3v.2c0 .1 0 .3.1.4.1.2.3.4.4.5.2.1.4.6.6.6s.4-.1.5-.1c.2 0 .4 0 .6-.1s.1-.3.3-.5c.1-.1.3 0 .4-.1.2-.1.3-.3.4-.5v-.2c0-.1.1-.2.1-.3s-.1-.1-.1-.2v-.3c0-.2 0-.4-.1-.5-.4-.7-1.2-.9-2-.8-.2 0-.3.1-.4.2-.2.1-.1.2-.3.2-.1 0-.2.1-.2.2v.3c0 .1 0 0 0 0"/><path  d="M61.8-10.4v.2c-.1.1-.1.1-.2.1-.1.1-.1.3-.1.4-.2.1 0 .2 0 .3v.2c0 .1 0 .3.1.4.1.2.3.4.4.5.2.1.4.6.6.6s.4-.1.5-.1c.2 0 .4 0 .6-.1s.1-.3.3-.4c.1-.1.3 0 .4-.1.2-.1.3-.3.4-.5v-.2c0-.1.1-.2.1-.3s-.1-.1-.1-.2v-.3c0-.2 0-.4-.1-.5-.4-.7-1.2-.9-2-.8-.2 0-.3.1-.4.2-.2.1-.1.2-.3.2-.1 0-.2.1-.2.2v.2"/><path  d="M61.8-2.8v.2c-.1.1-.1.1-.2.1-.1.1-.1.3-.1.4-.2.1 0 .2 0 .3v.2c0 .1 0 .3.1.4 0 .2.2.4.4.5s.4.6.6.6.4-.1.5-.1c.2 0 .4 0 .6-.1s.1-.3.3-.5c.1-.1.3 0 .4-.1.2-.1.3-.3.4-.5v-.2c0-.1.1-.2.1-.3s-.1-.1-.1-.2v-.3c0-.2 0-.4-.1-.5-.4-.7-1.2-.9-2-.8-.2 0-.3.1-.4.2-.2.1-.1.2-.3.2-.1 0-.2.1-.2.2v.3c0 .1 0 0 0 0"/><path  d="M31.1-2.8v.2c-.1.1-.1.1-.2.1-.1.1-.1.3-.1.4-.2.1 0 .2 0 .3v.2c0 .1 0 .3.1.4.1.2.2.4.4.5s.4.6.6.6.4-.1.5-.1c.2 0 .4 0 .6-.1s.1-.3.3-.5c.1-.1.3 0 .4-.1.2-.1.3-.3.4-.5v-.2c0-.1.1-.2.1-.3s-.1-.1-.1-.2v-.3c0-.2 0-.4-.1-.5-.4-.7-1.2-.9-2-.8-.2 0-.3.1-.4.2-.2.1-.1.2-.3.2-.1 0-.2.1-.2.2v.3c0 .1 0 0 0 0"/></defs></svg>