<svg xmlns="http://www.w3.org/2000/svg" width="29.4" height="17.3" xmlns:v="https://vecta.io/nano"><path d="M.3 17.3c-.1 0-.2 0-.2-.1h0c-.1 0-.1-.1-.1-.2h0V.3C0 .2 0 .1.1.1h0C.2 0 .2 0 .3 0h0H29c.1 0 .2 0 .2.1h0c.1.1.1.1.1.2h0V17c0 .1 0 .2-.1.2h0c-.1.1-.1.1-.2.1h0H.3h0zm28.8-.3v-.3.3h0zM.7 16.6h28.1V.6H.7v16h0zM2.6 5.2a3.33 3.33 0 0 1 3.3-3.3h0a3.33 3.33 0 0 1 3.3 3.3h0a3.33 3.33 0 0 1-3.3 3.3h0C4 8.4 2.6 7 2.6 5.2h0zm.6 0a2.65 2.65 0 0 0 2.6 2.6h0a2.65 2.65 0 0 0 2.6-2.6h0a2.65 2.65 0 0 0-2.6-2.6h0c-1.4 0-2.6 1.1-2.6 2.6h0zm8.2.6a3.33 3.33 0 0 1 3.3-3.3h0C16.5 2.6 18 4 18 5.8h0a3.33 3.33 0 0 1-3.3 3.3h0a3.33 3.33 0 0 1-3.3-3.3h0zm.7 0a2.65 2.65 0 0 0 2.6 2.6h0a2.65 2.65 0 0 0 2.6-2.6h0a2.65 2.65 0 0 0-2.6-2.6h0a2.65 2.65 0 0 0-2.6 2.6h0zm-9.5 6.6a3.33 3.33 0 0 1 3.3-3.3h0a3.33 3.33 0 0 1 3.3 3.3h0a3.33 3.33 0 0 1-3.3 3.3h0c-1.9-.1-3.3-1.5-3.3-3.3h0zm.6 0A2.65 2.65 0 0 0 5.8 15h0a2.65 2.65 0 0 0 2.6-2.6h0a2.65 2.65 0 0 0-2.6-2.6h0a2.65 2.65 0 0 0-2.6 2.6h0zm17-7.7a3.33 3.33 0 0 1 3.3-3.3h0a3.33 3.33 0 0 1 3.3 3.3h0A3.33 3.33 0 0 1 23.5 8h0c-1.9 0-3.3-1.5-3.3-3.3h0zm.6 0a2.65 2.65 0 0 0 2.6 2.6h0A2.65 2.65 0 0 0 26 4.7h0a2.65 2.65 0 0 0-2.6-2.6h0a2.65 2.65 0 0 0-2.6 2.6h0zm-1.4 7.6c0-2.2 1.8-4.1 4.1-4.1h0c2.2 0 4.1 1.8 4.1 4.1h0c0 2.2-1.8 4.1-4.1 4.1h0c-2.3-.1-4.1-1.9-4.1-4.1h0zm.6 0a3.37 3.37 0 0 0 3.4 3.4h0a3.37 3.37 0 0 0 3.4-3.4h0a3.37 3.37 0 0 0-3.4-3.4h0a3.37 3.37 0 0 0-3.4 3.4h0zM9.9 5.8c0-2.6 2.1-4.7 4.8-4.8h0c2.6 0 4.8 2.1 4.8 4.8h0c0 2.6-2.1 4.8-4.8 4.8h0c-2.6 0-4.8-2.1-4.8-4.8h0zm.7 0c0 2.3 1.8 4.1 4.1 4.1h0c2.3 0 4.1-1.8 4.1-4.1h0c0-2.3-1.8-4.1-4.1-4.1h0c-2.3.1-4.1 1.9-4.1 4.1h0zm-.5 10.5c-.1 0-.2 0-.2-.1h0c-.1-.1-.1-.1-.1-.2h0v-4.4c0-.1 0-.2.1-.2h0c.1-.1.1-.1.2-.1h0 8.4c.1 0 .2 0 .2.1h0c.1.1.1.1.1.2h0V16c0 .1 0 .2-.1.2h0c-.1.1-.1.1-.2.1h0-8.4 0zm8.4-.4v-.3.3h0zm-8.1-.3h7.7v-3.8h-7.7v3.8h0z" fill="#010101"/><defs ><path  d="M61.8-71.7v.2c-.1.1-.1.1-.2.1-.1.1-.1.3-.1.4-.2.1 0 .2 0 .3v.2c0 .1 0 .3.1.4.1.2.3.4.4.5.2.1.4.6.6.6s.4-.1.5-.1c.2 0 .4 0 .6-.1s.1-.3.3-.5c.1-.1.3 0 .4-.1.2-.1.3-.3.4-.5v-.2c0-.1.1-.2.1-.3s-.1-.1-.1-.2v-.3c0-.2 0-.4-.1-.5-.4-.7-1.2-.9-2-.8-.2 0-.3.1-.4.2-.2.1-.1.2-.3.2-.1 0-.2.1-.2.2v.3c0 .1 0 .1 0 0"/><path  d="M69.4-64v.2c-.1.1-.1.1-.2.1-.1.1-.1.3-.1.4-.2.1 0 .2 0 .3v.2c0 .1 0 .3.1.4.1.2.3.4.4.5.2.1.4.6.6.6s.4-.1.5-.1c.2 0 .4 0 .6-.1s.1-.3.3-.5c.1-.1.3 0 .4-.1.2-.1.3-.3.4-.5v-.2c0-.1.1-.2.1-.3s-.1-.1-.1-.2v-.3c0-.2 0-.4-.1-.5-.4-.7-1.2-.9-2-.8-.2 0-.3.1-.4.2-.2.1-.1.2-.3.2-.1 0-.2.1-.2.2v.3"/><path  d="M8.2-56.3v.2c-.1 0-.2 0-.2.1-.1.1-.1.3-.1.4-.2.1 0 .2 0 .3v.2c0 .1 0 .3.1.4.1.2.3.4.4.5.2.1.4.6.6.6s.4-.1.5-.1c.2 0 .4 0 .6-.1s.1-.3.3-.5c.1-.1.3 0 .4-.1.2-.1.3-.3.4-.5v-.2c0-.1.1-.2.1-.3s-.1-.1-.1-.2v-.3c0-.2 0-.4-.1-.5-.4-.7-1.2-.9-2-.8-.2 0-.3.1-.4.2-.2.1-.1.2-.3.2-.1 0-.2.1-.2.2v.3c-.1 0-.1 0 0 0"/><path  d="M69.4-18.1v.2c-.1.1-.1.1-.2.1-.1.1-.1.3-.1.4-.2.1 0 .2 0 .3v.2c0 .1 0 .3.1.4.1.2.3.4.4.5.2.1.4.6.6.6s.4-.1.5-.1c.2 0 .4 0 .6-.1s.1-.3.3-.5c.1-.1.3 0 .4-.1.2-.1.3-.3.4-.5v-.2c0-.1.1-.2.1-.3s-.1-.1-.1-.2v-.3c0-.2 0-.4-.1-.5-.4-.7-1.2-.9-2-.8-.2 0-.3.1-.4.2-.2.1-.1.2-.3.2-.1 0-.2.1-.2.2v.3c0 .1 0 0 0 0"/><path  d="M61.8-10.4v.2c-.1.1-.1.1-.2.1-.1.1-.1.3-.1.4-.2.1 0 .2 0 .3v.2c0 .1 0 .3.1.4.1.2.3.4.4.5.2.1.4.6.6.6s.4-.1.5-.1c.2 0 .4 0 .6-.1s.1-.3.3-.4c.1-.1.3 0 .4-.1.2-.1.3-.3.4-.5v-.2c0-.1.1-.2.1-.3s-.1-.1-.1-.2v-.3c0-.2 0-.4-.1-.5-.4-.7-1.2-.9-2-.8-.2 0-.3.1-.4.2-.2.1-.1.2-.3.2-.1 0-.2.1-.2.2v.2"/><path  d="M61.8-2.8v.2c-.1.1-.1.1-.2.1-.1.1-.1.3-.1.4-.2.1 0 .2 0 .3v.2c0 .1 0 .3.1.4 0 .2.2.4.4.5s.4.6.6.6.4-.1.5-.1c.2 0 .4 0 .6-.1s.1-.3.3-.5c.1-.1.3 0 .4-.1.2-.1.3-.3.4-.5v-.2c0-.1.1-.2.1-.3s-.1-.1-.1-.2v-.3c0-.2 0-.4-.1-.5-.4-.7-1.2-.9-2-.8-.2 0-.3.1-.4.2-.2.1-.1.2-.3.2-.1 0-.2.1-.2.2v.3c0 .1 0 0 0 0"/><path  d="M31.1-2.8v.2c-.1.1-.1.1-.2.1-.1.1-.1.3-.1.4-.2.1 0 .2 0 .3v.2c0 .1 0 .3.1.4.1.2.2.4.4.5s.4.6.6.6.4-.1.5-.1c.2 0 .4 0 .6-.1s.1-.3.3-.5c.1-.1.3 0 .4-.1.2-.1.3-.3.4-.5v-.2c0-.1.1-.2.1-.3s-.1-.1-.1-.2v-.3c0-.2 0-.4-.1-.5-.4-.7-1.2-.9-2-.8-.2 0-.3.1-.4.2-.2.1-.1.2-.3.2-.1 0-.2.1-.2.2v.3c0 .1 0 0 0 0"/></defs></svg>