<svg xmlns="http://www.w3.org/2000/svg" width="28.5" height="31.9" xmlns:v="https://vecta.io/nano"><g fill="#010101"><path d="M24.3 3.2h-.9a.47.47 0 0 1-.5-.5.47.47 0 0 1 .5-.5h.9a.47.47 0 0 1 .5.5c0 .2-.2.5-.5.5M10.5 27.7a4.95 4.95 0 0 1-5-5 4.95 4.95 0 0 1 5-5 4.95 4.95 0 0 1 5 5c-.1 2.8-2.3 5-5 5m0-9.1c-2.2 0-4.1 1.8-4.1 4.1 0 2.2 1.8 4.1 4.1 4.1 2.2 0 4.1-1.8 4.1-4.1-.1-2.2-1.9-4.1-4.1-4.1"/><path d="M23.9 31.9H4.6c-.6 0-1-.5-1-1v-1.4h1v1.3h19.3v-1.3h1v1.4c0 .6-.5 1-1 1m3-26.7H1.6A1.58 1.58 0 0 1 0 3.6V.5A.47.47 0 0 1 .5 0h27.4a.47.47 0 0 1 .5.5v3.1c.1.9-.7 1.6-1.5 1.6M1 1v2.6c0 .3.2.6.6.6h25.3c.3 0 .6-.2.6-.6V1H1z"/><path d="M26.4 30H2.1c-.6 0-1-.5-1-1V4.8h1v24.1h24.3V4.8h1V29c0 .5-.4 1-1 1M24 27.8H4.5a.94.94 0 0 1-1-1V7.5c0-.6.5-1 1-1H24c.6 0 1 .5 1 1v19.3a1.08 1.08 0 0 1-1 1M4.5 26.7h19.4V7.6H4.5v19.1z"/><path d="M10.3 24.6c-1 0-1.9-.8-1.9-1.9s.8-1.9 1.9-1.9c1 0 1.9.8 1.9 1.9s-.8 1.9-1.9 1.9m0-3.1c-.6 0-1.2.5-1.2 1.2 0 .6.5 1.2 1.2 1.2.6 0 1.2-.5 1.2-1.2 0-.6-.5-1.2-1.2-1.2"/><path d="M10.3 27.7a4.95 4.95 0 0 1-5-5 4.95 4.95 0 0 1 5-5 4.95 4.95 0 0 1 5 5 4.95 4.95 0 0 1-5 5m0-9.1c-2.2 0-4.1 1.8-4.1 4.1 0 2.2 1.8 4.1 4.1 4.1 2.2 0 4.1-1.8 4.1-4.1 0-2.2-1.8-4.1-4.1-4.1"/><path d="M14.2 27.7h-.7c-.4 0-.8-.1-.8-.5 0 0 0-.5.5-.5.1 0 .2 0 .2.1.2 0 .6.1.8.1 2.1 0 3.9-1.8 3.9-4.1 0-2.2-1.7-4.1-3.9-4.1a.47.47 0 0 1-.5-.5.47.47 0 0 1 .5-.5c2.7 0 4.8 2.2 4.8 5 .1 2.8-2.1 5-4.8 5m4.1 0c-.4 0-.7 0-1-.1-.2-.1-.4-.3-.3-.6.1-.2.3-.4.6-.3s.5.1.8.1c2.1 0 3.9-1.8 3.9-4.1 0-2.2-1.7-4.1-3.9-4.1a.47.47 0 0 1-.5-.5.47.47 0 0 1 .5-.5c2.7 0 4.8 2.2 4.8 5-.1 2.9-2.3 5.1-4.9 5.1M13.8 16v-.7a.47.47 0 0 1 .5-.5.47.47 0 0 1 .5.5v.7a.47.47 0 0 1-.5.5c-.3-.1-.5-.3-.5-.5m0-2.5v-.7a.47.47 0 0 1 .5-.5.47.47 0 0 1 .5.5v.7a.47.47 0 0 1-.5.5.47.47 0 0 1-.5-.5m-6.7 2.9c-.1 0-.2 0-.3-.1a.37.37 0 0 1 0-.6l.6-.6c.2-.2.4-.2.6 0a.37.37 0 0 1 0 .6l-.6.6c-.1.1-.2.1-.3.1M9 14.2c-.1 0-.2 0-.3-.1-.2-.2-.2-.4 0-.6l.6-.6a.37.37 0 0 1 .6 0c.2.2.2.4 0 .6l-.6.6c0 .1-.2.1-.3.1m2-2.2c-.1 0-.2 0-.3-.1a.37.37 0 0 1 0-.6l.6-.6a.37.37 0 0 1 .6 0 .37.37 0 0 1 0 .6l-.6.6c-.1.1-.2.1-.3.1m2-2.2c-.1 0-.2 0-.3-.1-.2-.2-.2-.4 0-.6l.6-.6a.37.37 0 0 1 .6 0c.2.2.2.4 0 .6l-.6.6c-.1.1-.2.1-.3.1m-2.4 6.6c-.1 0-.2 0-.2-.1-.2-.1-.3-.4-.1-.6l.4-.7c.1-.2.4-.3.6-.1.2.1.3.4.1.6l-.4.7c-.1.2-.2.2-.4.2m1.6-2.5c-.1 0-.2 0-.2-.1-.2-.1-.3-.4-.1-.6l.4-.7c.1-.2.4-.3.6-.1.2.1.3.4.1.6l-.4.7c-.1.2-.2.2-.4.2m1.6-2.5c-.1 0-.2 0-.2-.1-.2-.1-.3-.4-.1-.6l.4-.7c.1-.2.4-.3.6-.1.2.1.3.4.1.6l-.4.7c-.1.2-.3.2-.4.2m7.6 5c-.1 0-.2 0-.3-.1l-.6-.6c-.2-.2-.1-.4 0-.6.2-.2.4-.1.6 0l.6.6c.2.2.1.4 0 .6-.1.1-.2.1-.3.1m-2-2.2c-.1 0-.2 0-.3-.1l-.6-.6c-.2-.2-.1-.4 0-.6.2-.2.4-.1.6 0l.6.6c.2.2.1.4 0 .6-.1.1-.2.1-.3.1M17.5 12c-.1 0-.2 0-.3-.1l-.6-.6c-.2-.2-.1-.4 0-.6.2-.2.4-.1.6 0l.6.6c.2.2.1.4 0 .6-.1.1-.2.1-.3.1m-2-2.2c-.1 0-.2 0-.3-.1l-.6-.6c-.2-.2-.1-.4 0-.6.2-.2.4-.1.6 0l.6.6c.2.2.1.4 0 .6-.1.1-.2.1-.3.1"/><path d="M17.8 16.4a.76.76 0 0 1-.4-.2l-.4-.7c-.1-.2-.1-.5.1-.6s.5-.1.6.1l.4.7c.1.2.1.5-.1.6 0 .1-.1.1-.2.1m-1.6-2.5a.76.76 0 0 1-.4-.2l-.4-.7c-.1-.2-.1-.5.1-.6s.5-.1.6.1l.5.7c.1.2.1.5-.1.6-.1.1-.2.1-.3.1m-1.5-2.5a.76.76 0 0 1-.4-.2l-.4-.7c-.1-.2-.1-.5.1-.6s.5-.1.6.1l.4.7c.1.2.1.5-.1.6-.1.1-.2.1-.2.1"/></g><defs ><path  d="M61.8-71.7v.2c-.1.1-.1.1-.2.1-.1.1-.1.3-.1.4-.2.1 0 .2 0 .3v.2c0 .1 0 .3.1.4.1.2.3.4.4.5.2.1.4.6.6.6s.4-.1.5-.1c.2 0 .4 0 .6-.1s.1-.3.3-.5c.1-.1.3 0 .4-.1.2-.1.3-.3.4-.5v-.2c0-.1.1-.2.1-.3s-.1-.1-.1-.2v-.3c0-.2 0-.4-.1-.5-.4-.7-1.2-.9-2-.8-.2 0-.3.1-.4.2-.2.1-.1.2-.3.2-.1 0-.2.1-.2.2v.3c0 .1 0 .1 0 0"/><path  d="M69.4-64v.2c-.1.1-.1.1-.2.1-.1.1-.1.3-.1.4-.2.1 0 .2 0 .3v.2c0 .1 0 .3.1.4.1.2.3.4.4.5.2.1.4.6.6.6s.4-.1.5-.1c.2 0 .4 0 .6-.1s.1-.3.3-.5c.1-.1.3 0 .4-.1.2-.1.3-.3.4-.5v-.2c0-.1.1-.2.1-.3s-.1-.1-.1-.2v-.3c0-.2 0-.4-.1-.5-.4-.7-1.2-.9-2-.8-.2 0-.3.1-.4.2-.2.1-.1.2-.3.2-.1 0-.2.1-.2.2v.3"/><path  d="M8.2-56.3v.2c-.1 0-.2 0-.2.1-.1.1-.1.3-.1.4-.2.1 0 .2 0 .3v.2c0 .1 0 .3.1.4.1.2.3.4.4.5.2.1.4.6.6.6s.4-.1.5-.1c.2 0 .4 0 .6-.1s.1-.3.3-.5c.1-.1.3 0 .4-.1.2-.1.3-.3.4-.5v-.2c0-.1.1-.2.1-.3s-.1-.1-.1-.2v-.3c0-.2 0-.4-.1-.5-.4-.7-1.2-.9-2-.8-.2 0-.3.1-.4.2-.2.1-.1.2-.3.2-.1 0-.2.1-.2.2v.3c-.1 0-.1 0 0 0"/><path  d="M69.4-18.1v.2c-.1.1-.1.1-.2.1-.1.1-.1.3-.1.4-.2.1 0 .2 0 .3v.2c0 .1 0 .3.1.4.1.2.3.4.4.5.2.1.4.6.6.6s.4-.1.5-.1c.2 0 .4 0 .6-.1s.1-.3.3-.5c.1-.1.3 0 .4-.1.2-.1.3-.3.4-.5v-.2c0-.1.1-.2.1-.3s-.1-.1-.1-.2v-.3c0-.2 0-.4-.1-.5-.4-.7-1.2-.9-2-.8-.2 0-.3.1-.4.2-.2.1-.1.2-.3.2-.1 0-.2.1-.2.2v.3c0 .1 0 0 0 0"/><path  d="M61.8-10.4v.2c-.1.1-.1.1-.2.1-.1.1-.1.3-.1.4-.2.1 0 .2 0 .3v.2c0 .1 0 .3.1.4.1.2.3.4.4.5.2.1.4.6.6.6s.4-.1.5-.1c.2 0 .4 0 .6-.1s.1-.3.3-.4c.1-.1.3 0 .4-.1.2-.1.3-.3.4-.5v-.2c0-.1.1-.2.1-.3s-.1-.1-.1-.2v-.3c0-.2 0-.4-.1-.5-.4-.7-1.2-.9-2-.8-.2 0-.3.1-.4.2-.2.1-.1.2-.3.2-.1 0-.2.1-.2.2v.2"/><path  d="M61.8-2.8v.2c-.1.1-.1.1-.2.1-.1.1-.1.3-.1.4-.2.1 0 .2 0 .3v.2c0 .1 0 .3.1.4 0 .2.2.4.4.5s.4.6.6.6.4-.1.5-.1c.2 0 .4 0 .6-.1s.1-.3.3-.5c.1-.1.3 0 .4-.1.2-.1.3-.3.4-.5v-.2c0-.1.1-.2.1-.3s-.1-.1-.1-.2v-.3c0-.2 0-.4-.1-.5-.4-.7-1.2-.9-2-.8-.2 0-.3.1-.4.2-.2.1-.1.2-.3.2-.1 0-.2.1-.2.2v.3c0 .1 0 0 0 0"/><path  d="M31.1-2.8v.2c-.1.1-.1.1-.2.1-.1.1-.1.3-.1.4-.2.1 0 .2 0 .3v.2c0 .1 0 .3.1.4.1.2.2.4.4.5s.4.6.6.6.4-.1.5-.1c.2 0 .4 0 .6-.1s.1-.3.3-.5c.1-.1.3 0 .4-.1.2-.1.3-.3.4-.5v-.2c0-.1.1-.2.1-.3s-.1-.1-.1-.2v-.3c0-.2 0-.4-.1-.5-.4-.7-1.2-.9-2-.8-.2 0-.3.1-.4.2-.2.1-.1.2-.3.2-.1 0-.2.1-.2.2v.3c0 .1 0 0 0 0"/></defs></svg>