<svg xmlns="http://www.w3.org/2000/svg" width="30.1" height="21.3" xmlns:v="https://vecta.io/nano"><g fill="#010101"><path d="M20.8 15.3H3.5c-.6 0-1-.4-1-.9V5.9c0-.5.5-.9 1-.9h17.3c.6 0 1 .4 1 .9v8.5c0 .5-.4.9-1 .9M3.5 5.6c-.2 0-.3.1-.3.3v8.5c0 .2.1.3.3.3h17.3c.2 0 .3-.1.3-.3V5.9c0-.2-.1-.3-.3-.3H3.5z"/><path d="M4.9 10.1c-.1 0-.2 0-.3-.1s-.1-.4 0-.5l2.8-2.8c.1-.1.4-.1.5 0s.1.3 0 .5L5.1 10c-.1 0-.2.1-.2.1m0 3.3c-.1 0-.2 0-.3-.1s-.1-.4 0-.5l6.1-6.1c.1-.1.4-.1.5 0s.1.4 0 .5l-6.1 6.1c-.1.1-.1.1-.2.1M27 21.3H3.6l-2-1.8.6-.6 1.7 1.6h22.8l1.7-1.6.6.6zM.7 16.9V16h28.7v.9H.7z"/><path d="M.7 4v-.9h29V4H.7zm23.1 14.5v-1.8c0-.2.2-.4.4-.4h0c.2 0 .4.2.4.4h0v1.8c0 .2-.2.4-.4.4h0c-.2.1-.4-.1-.4-.4h0z"/><path d="M23.5 15.2c-.1 0-.2 0-.2-.1h0c-.1-.1-.1-.1-.1-.2h0V5.1c0-.1 0-.2.1-.2h0c.1-.1.1-.1.2-.1h0 4.4c.1 0 .2 0 .2.1h0c.1.1.1.1.1.2h0v9.8c0 .1 0 .2-.1.2h0c-.1.1-.1.1-.2.1h0-4.4 0zm4.4-.3v-.3.3h0zm-4.1-.3h3.8V5.4h-3.8v9.2h0zm-23.4 5c-.1 0-.2 0-.3-.1h0c-.1-.1-.1-.2-.1-.4h0V.4C0 .3 0 .2.1.1h0C.2 0 .3 0 .4 0h0 29.2c.1 0 .2 0 .3.1h0c.1.1.1.2.1.3h0v18.7c0 .1 0 .2-.1.3h0c-.1.1-.2.1-.3.1h0H.4v.1zm29.3-.5v-.4.4h0zM.9 18.7h28.3V.9H.9v17.8h0z"/></g><defs ><path  d="M61.8-71.7v.2c-.1.1-.1.1-.2.1-.1.1-.1.3-.1.4-.2.1 0 .2 0 .3v.2c0 .1 0 .3.1.4.1.2.3.4.4.5.2.1.4.6.6.6s.4-.1.5-.1c.2 0 .4 0 .6-.1s.1-.3.3-.5c.1-.1.3 0 .4-.1.2-.1.3-.3.4-.5v-.2c0-.1.1-.2.1-.3s-.1-.1-.1-.2v-.3c0-.2 0-.4-.1-.5-.4-.7-1.2-.9-2-.8-.2 0-.3.1-.4.2-.2.1-.1.2-.3.2-.1 0-.2.1-.2.2v.3c0 .1 0 .1 0 0"/><path  d="M69.4-64v.2c-.1.1-.1.1-.2.1-.1.1-.1.3-.1.4-.2.1 0 .2 0 .3v.2c0 .1 0 .3.1.4.1.2.3.4.4.5.2.1.4.6.6.6s.4-.1.5-.1c.2 0 .4 0 .6-.1s.1-.3.3-.5c.1-.1.3 0 .4-.1.2-.1.3-.3.4-.5v-.2c0-.1.1-.2.1-.3s-.1-.1-.1-.2v-.3c0-.2 0-.4-.1-.5-.4-.7-1.2-.9-2-.8-.2 0-.3.1-.4.2-.2.1-.1.2-.3.2-.1 0-.2.1-.2.2v.3"/><path  d="M8.2-56.3v.2c-.1 0-.2 0-.2.1-.1.1-.1.3-.1.4-.2.1 0 .2 0 .3v.2c0 .1 0 .3.1.4.1.2.3.4.4.5.2.1.4.6.6.6s.4-.1.5-.1c.2 0 .4 0 .6-.1s.1-.3.3-.5c.1-.1.3 0 .4-.1.2-.1.3-.3.4-.5v-.2c0-.1.1-.2.1-.3s-.1-.1-.1-.2v-.3c0-.2 0-.4-.1-.5-.4-.7-1.2-.9-2-.8-.2 0-.3.1-.4.2-.2.1-.1.2-.3.2-.1 0-.2.1-.2.2v.3c-.1 0-.1 0 0 0"/><path  d="M69.4-18.1v.2c-.1.1-.1.1-.2.1-.1.1-.1.3-.1.4-.2.1 0 .2 0 .3v.2c0 .1 0 .3.1.4.1.2.3.4.4.5.2.1.4.6.6.6s.4-.1.5-.1c.2 0 .4 0 .6-.1s.1-.3.3-.5c.1-.1.3 0 .4-.1.2-.1.3-.3.4-.5v-.2c0-.1.1-.2.1-.3s-.1-.1-.1-.2v-.3c0-.2 0-.4-.1-.5-.4-.7-1.2-.9-2-.8-.2 0-.3.1-.4.2-.2.1-.1.2-.3.2-.1 0-.2.1-.2.2v.3c0 .1 0 0 0 0"/><path  d="M61.8-10.4v.2c-.1.1-.1.1-.2.1-.1.1-.1.3-.1.4-.2.1 0 .2 0 .3v.2c0 .1 0 .3.1.4.1.2.3.4.4.5.2.1.4.6.6.6s.4-.1.5-.1c.2 0 .4 0 .6-.1s.1-.3.3-.4c.1-.1.3 0 .4-.1.2-.1.3-.3.4-.5v-.2c0-.1.1-.2.1-.3s-.1-.1-.1-.2v-.3c0-.2 0-.4-.1-.5-.4-.7-1.2-.9-2-.8-.2 0-.3.1-.4.2-.2.1-.1.2-.3.2-.1 0-.2.1-.2.2v.2"/><path  d="M61.8-2.8v.2c-.1.1-.1.1-.2.1-.1.1-.1.3-.1.4-.2.1 0 .2 0 .3v.2c0 .1 0 .3.1.4 0 .2.2.4.4.5s.4.6.6.6.4-.1.5-.1c.2 0 .4 0 .6-.1s.1-.3.3-.5c.1-.1.3 0 .4-.1.2-.1.3-.3.4-.5v-.2c0-.1.1-.2.1-.3s-.1-.1-.1-.2v-.3c0-.2 0-.4-.1-.5-.4-.7-1.2-.9-2-.8-.2 0-.3.1-.4.2-.2.1-.1.2-.3.2-.1 0-.2.1-.2.2v.3c0 .1 0 0 0 0"/><path  d="M31.1-2.8v.2c-.1.1-.1.1-.2.1-.1.1-.1.3-.1.4-.2.1 0 .2 0 .3v.2c0 .1 0 .3.1.4.1.2.2.4.4.5s.4.6.6.6.4-.1.5-.1c.2 0 .4 0 .6-.1s.1-.3.3-.5c.1-.1.3 0 .4-.1.2-.1.3-.3.4-.5v-.2c0-.1.1-.2.1-.3s-.1-.1-.1-.2v-.3c0-.2 0-.4-.1-.5-.4-.7-1.2-.9-2-.8-.2 0-.3.1-.4.2-.2.1-.1.2-.3.2-.1 0-.2.1-.2.2v.3c0 .1 0 0 0 0"/></defs></svg>