<svg xmlns="http://www.w3.org/2000/svg" width="31" height="23.6" xmlns:v="https://vecta.io/nano"><g fill="#fff"><path d="M.4 23.6c-.1 0-.2 0-.3-.1h0c-.1-.2-.1-.3-.1-.4h0V.4C0 .3 0 .2.1.1h0C.2 0 .3 0 .4 0h0 30.1c.1 0 .2 0 .3.1h0c.2.1.2.2.2.3h0v22.7c0 .1 0 .2-.1.3h0c-.1.1-.2.1-.3.1h0H.4v.1zm30.2-.5v-.4.4h0zM.9 22.7h29.2V.9H.9v21.8h0zM2.7 7.4c-.3 0-.5-.2-.5-.4h0c0-.2.2-.4.4-.4h0 25.6c.2 0 .4.2.4.4h0c0 .2-.2.4-.4.4h0H2.7h0z"/><path d="M4.7 17.3c-.1 0-.2 0-.3-.1h0c-.1-.1-.1-.2-.1-.3h0V9.7c0-.1 0-.2.1-.3h0c.1-.1.2-.1.3-.1h0H20c.1 0 .2 0 .3.1h0c.1.1.1.2.1.3h0v7.1c0 .1 0 .2-.1.3h0c-.1.1-.2.1-.3.1h0H4.7v.1zm15.3-.5v-.4.4h0zm-14.8-.4h14.4v-6.2H5.2v6.2h0zM.4 19.5v-.9h30.2v.9H.4zm0-14.7v-.9h30.1v.9H.4zm22.9 12.5c-.1 0-.2 0-.3-.1h0c-.1-.1-.1-.2-.1-.3h0V9.7c0-.1 0-.2.1-.3h0c.1-.1.2-.1.3-.1h0 4.3c.1 0 .2 0 .3.1h0c.1.1.1.2.1.3h0v7.1c0 .1 0 .2-.1.3h0c-.1.1-.2.1-.3.1h0-4.3v.1zm4.3-.5v-.4.4h0zm-3.9-.4h3.4v-6.2h-3.4v6.2h0z"/></g><defs ><path  d="M61.8-71.7v.2c-.1.1-.1.1-.2.1-.1.1-.1.3-.1.4-.2.1 0 .2 0 .3v.2c0 .1 0 .3.1.4.1.2.3.4.4.5.2.1.4.6.6.6s.4-.1.5-.1c.2 0 .4 0 .6-.1s.1-.3.3-.5c.1-.1.3 0 .4-.1.2-.1.3-.3.4-.5v-.2c0-.1.1-.2.1-.3s-.1-.1-.1-.2v-.3c0-.2 0-.4-.1-.5-.4-.7-1.2-.9-2-.8-.2 0-.3.1-.4.2-.2.1-.1.2-.3.2-.1 0-.2.1-.2.2v.3c0 .1 0 .1 0 0"/><path  d="M69.4-64v.2c-.1.1-.1.1-.2.1-.1.1-.1.3-.1.4-.2.1 0 .2 0 .3v.2c0 .1 0 .3.1.4.1.2.3.4.4.5.2.1.4.6.6.6s.4-.1.5-.1c.2 0 .4 0 .6-.1s.1-.3.3-.5c.1-.1.3 0 .4-.1.2-.1.3-.3.4-.5v-.2c0-.1.1-.2.1-.3s-.1-.1-.1-.2v-.3c0-.2 0-.4-.1-.5-.4-.7-1.2-.9-2-.8-.2 0-.3.1-.4.2-.2.1-.1.2-.3.2-.1 0-.2.1-.2.2v.3"/><path  d="M8.2-56.3v.2c-.1 0-.2 0-.2.1-.1.1-.1.3-.1.4-.2.1 0 .2 0 .3v.2c0 .1 0 .3.1.4.1.2.3.4.4.5.2.1.4.6.6.6s.4-.1.5-.1c.2 0 .4 0 .6-.1s.1-.3.3-.5c.1-.1.3 0 .4-.1.2-.1.3-.3.4-.5v-.2c0-.1.1-.2.1-.3s-.1-.1-.1-.2v-.3c0-.2 0-.4-.1-.5-.4-.7-1.2-.9-2-.8-.2 0-.3.1-.4.2-.2.1-.1.2-.3.2-.1 0-.2.1-.2.2v.3c-.1 0-.1 0 0 0"/><path  d="M69.4-18.1v.2c-.1.1-.1.1-.2.1-.1.1-.1.3-.1.4-.2.1 0 .2 0 .3v.2c0 .1 0 .3.1.4.1.2.3.4.4.5.2.1.4.6.6.6s.4-.1.5-.1c.2 0 .4 0 .6-.1s.1-.3.3-.5c.1-.1.3 0 .4-.1.2-.1.3-.3.4-.5v-.2c0-.1.1-.2.1-.3s-.1-.1-.1-.2v-.3c0-.2 0-.4-.1-.5-.4-.7-1.2-.9-2-.8-.2 0-.3.1-.4.2-.2.1-.1.2-.3.2-.1 0-.2.1-.2.2v.3c0 .1 0 0 0 0"/><path  d="M61.8-10.4v.2c-.1.1-.1.1-.2.1-.1.1-.1.3-.1.4-.2.1 0 .2 0 .3v.2c0 .1 0 .3.1.4.1.2.3.4.4.5.2.1.4.6.6.6s.4-.1.5-.1c.2 0 .4 0 .6-.1s.1-.3.3-.4c.1-.1.3 0 .4-.1.2-.1.3-.3.4-.5v-.2c0-.1.1-.2.1-.3s-.1-.1-.1-.2v-.3c0-.2 0-.4-.1-.5-.4-.7-1.2-.9-2-.8-.2 0-.3.1-.4.2-.2.1-.1.2-.3.2-.1 0-.2.1-.2.2v.2"/><path  d="M61.8-2.8v.2c-.1.1-.1.1-.2.1-.1.1-.1.3-.1.4-.2.1 0 .2 0 .3v.2c0 .1 0 .3.1.4 0 .2.2.4.4.5s.4.6.6.6.4-.1.5-.1c.2 0 .4 0 .6-.1s.1-.3.3-.5c.1-.1.3 0 .4-.1.2-.1.3-.3.4-.5v-.2c0-.1.1-.2.1-.3s-.1-.1-.1-.2v-.3c0-.2 0-.4-.1-.5-.4-.7-1.2-.9-2-.8-.2 0-.3.1-.4.2-.2.1-.1.2-.3.2-.1 0-.2.1-.2.2v.3c0 .1 0 0 0 0"/><path  d="M31.1-2.8v.2c-.1.1-.1.1-.2.1-.1.1-.1.3-.1.4-.2.1 0 .2 0 .3v.2c0 .1 0 .3.1.4.1.2.2.4.4.5s.4.6.6.6.4-.1.5-.1c.2 0 .4 0 .6-.1s.1-.3.3-.5c.1-.1.3 0 .4-.1.2-.1.3-.3.4-.5v-.2c0-.1.1-.2.1-.3s-.1-.1-.1-.2v-.3c0-.2 0-.4-.1-.5-.4-.7-1.2-.9-2-.8-.2 0-.3.1-.4.2-.2.1-.1.2-.3.2-.1 0-.2.1-.2.2v.3c0 .1 0 0 0 0"/></defs></svg>